
        <svg xmlns="http://www.w3.org/2000/svg" xmlns:xlink="http://www.w3.org/1999/xlink" version="1.1" width="3162.3083859332733" height="838.5933273219117" viewBox="0 0 3162.3083859332733 838.5933273219117">
			
			<g transform="scale(8.115419296663662) translate(10, 10)">
				<defs id="SvgjsDefs2184"/><g id="SvgjsG2185" featureKey="PG4fjM-0" transform="matrix(0.2955663282843518,0,0,0.2955663282843518,-2.668279757245948,-2.6682791934979155)" fill="#000"><g xmlns="http://www.w3.org/2000/svg"><path d="M209.1,9.1c-10.2,0.8-19.7,10.2-20.7,20.4c-0.2,1.5-0.2,3,0,4.4c0.7,7.9-2.3,15.7-8,21.3l-1.3,1.2   c-2.7,2.6-8.5,4.3-14.1,5.3c-9.9,1.7-20.1,1.7-30,0c-5.6-1-11.4-2.6-14.1-5.3l-1.2-1.2c-5.7-5.5-8.7-13.4-8-21.3   c0.1-1.5,0.1-2.9,0-4.4c-1-10.2-10.6-19.6-20.8-20.4C76.9,8,65.3,19.6,66.4,33.6c0.9,11,9.7,19.9,20.7,20.8c1.5,0.1,2.9,0.1,4.3,0   c8.1-0.8,16.2,1.6,22,7.4l1.1,1.1c6.3,6.1,9,15,7.6,23.7c-0.4,2.1-0.5,4.3-0.3,6.5c1,13.8,12.3,25.1,26.1,26   c16.5,1.1,30.2-11.9,30.2-28.1c0-1.6-0.2-3.3-0.5-4.8c-1.5-8.6,1.5-17.3,7.8-23.4l1-1c5.8-5.6,13.9-8.2,22-7.4   c1.4,0.2,2.8,0.2,4.3,0c11-0.9,19.8-9.8,20.7-20.8C234.7,19.6,223.1,8,209.1,9.1z"/><path d="M9.1,90.9c0.8,10.2,10.2,19.7,20.4,20.7c1.5,0.2,3,0.2,4.4,0c7.9-0.7,15.7,2.3,21.3,8l1.2,1.3c2.6,2.7,4.3,8.5,5.3,14.1   c1.7,9.9,1.7,20.1,0,30c-1,5.6-2.6,11.4-5.3,14.1l-1.2,1.2c-5.5,5.7-13.4,8.7-21.3,8c-1.5-0.1-2.9-0.1-4.4,0   c-10.2,1-19.6,10.6-20.4,20.8c-1.1,14,10.5,25.7,24.6,24.5c11-0.9,19.9-9.7,20.8-20.7c0.1-1.5,0.1-2.9,0-4.3   c-0.8-8.1,1.6-16.2,7.4-22l1.1-1.1c6.1-6.3,15-9,23.7-7.6c2.1,0.4,4.3,0.5,6.5,0.3c13.8-1,25.1-12.3,26-26.1   c1.1-16.5-11.9-30.2-28.1-30.2c-1.6,0-3.3,0.2-4.8,0.5c-8.6,1.5-17.3-1.5-23.4-7.8l-1-1c-5.6-5.8-8.2-13.9-7.4-22   c0.2-1.4,0.2-2.8,0-4.3c-1-11-9.9-19.9-20.9-20.7C19.6,65.3,8,76.9,9.1,90.9z"/><path d="M90.9,290.9c10.2-0.8,19.7-10.2,20.7-20.4c0.2-1.5,0.2-3,0-4.4c-0.7-7.9,2.3-15.7,8-21.3l1.2-1.2c2.7-2.6,8.5-4.3,14.1-5.3   c9.9-1.7,20.1-1.7,30,0c5.6,1,11.4,2.6,14.1,5.3l1.2,1.2c5.7,5.5,8.7,13.4,8,21.3c-0.1,1.5-0.1,2.9,0,4.4   c1,10.2,10.6,19.6,20.7,20.4c14,1.1,25.7-10.5,24.5-24.6c-0.9-11-9.7-19.9-20.7-20.8c-1.5-0.1-2.9-0.1-4.3,0   c-8.1,0.8-16.2-1.6-22-7.4l-1.1-1.1c-6.3-6.1-9-15-7.6-23.7c0.4-2.1,0.5-4.3,0.3-6.5c-1-13.8-12.3-25.1-26.1-26   c-16.5-1.1-30.2,11.9-30.2,28.1c0,1.6,0.2,3.3,0.5,4.8c1.5,8.6-1.5,17.3-7.8,23.4l-1,1c-5.8,5.6-13.9,8.2-22,7.4   c-1.4-0.2-2.8-0.2-4.3,0c-11,0.9-19.8,9.8-20.7,20.8C65.3,280.4,76.9,292,90.9,290.9z"/><path d="M290.9,209.1c-0.8-10.2-10.2-19.7-20.4-20.7c-1.5-0.2-3-0.2-4.4,0c-7.9,0.7-15.7-2.3-21.3-8l-1.2-1.3   c-2.6-2.7-4.3-8.5-5.3-14.1c-1.7-9.9-1.7-20.1,0-30c1-5.6,2.6-11.4,5.3-14.1l1.2-1.2c5.5-5.7,13.4-8.7,21.3-8   c1.5,0.1,2.9,0.1,4.4,0c10.2-1,19.6-10.6,20.4-20.7c1.1-14-10.5-25.7-24.6-24.5c-11,0.9-19.9,9.7-20.8,20.7c-0.1,1.5-0.1,2.9,0,4.3   c0.8,8.1-1.6,16.2-7.4,22l-1.1,1.1c-6.1,6.3-15,9-23.7,7.6c-2.1-0.4-4.3-0.5-6.5-0.3c-13.8,1-25.1,12.3-26,26.1   c-1.1,16.5,11.9,30.2,28.1,30.2c1.6,0,3.3-0.2,4.8-0.5c8.6-1.5,17.3,1.5,23.4,7.8l1,1c5.6,5.8,8.2,13.9,7.4,22   c-0.2,1.4-0.2,2.8,0,4.3c0.9,11,9.8,19.8,20.8,20.7C280.4,234.7,292,223.1,290.9,209.1z"/><path d="M89.1,107.2c10,0,18.2-8.1,18.2-18.2c0-10-8.1-18.2-18.2-18.2c-10,0-18.2,8.1-18.2,18.2C70.9,99.1,79,107.2,89.1,107.2z"/><path d="M89.1,229.1c10,0,18.2-8.1,18.2-18.2c0-10-8.1-18.2-18.2-18.2c-10,0-18.2,8.1-18.2,18.2C70.9,221,79,229.1,89.1,229.1z"/><path d="M210.9,229.1c10,0,18.2-8.1,18.2-18.2c0-10-8.1-18.2-18.2-18.2c-10,0-18.2,8.1-18.2,18.2   C192.8,221,200.9,229.1,210.9,229.1z"/><path d="M210.9,107.2c10,0,18.2-8.1,18.2-18.2c0-10-8.1-18.2-18.2-18.2c-10,0-18.2,8.1-18.2,18.2   C192.8,99.1,200.9,107.2,210.9,107.2z"/><path d="M150,168.2c10,0,18.2-8.1,18.2-18.2s-8.1-18.2-18.2-18.2s-18.2,8.1-18.2,18.2S140,168.2,150,168.2z"/></g></g><g id="SvgjsG2186" featureKey="jxYttZ-0" transform="matrix(3.4328870445292567,0,0,3.4328870445292567,99.56711213700669,-10.47785683158357)" fill="#000"><path d="M6.84 6.699999999999999 c-0.3 -0.14 -0.8 -0.32 -1.44 -0.06 c-0.98 0.44 -1.14 0.84 -1.14 2.48 l0 1 l2.58 0 l0 1.68 l-2.58 0 l0 8.2 l-2.06 0 l0 -8.2 l-1.2 0 l0 -1.68 l1.2 0 l0 -1 c0 -1.56 0 -1.92 0.6 -2.9 c0.64 -1.06 1.68 -1.42 2.86 -1.42 c0.54 0 0.92 0.14 1.18 0.3 l0 1.6 z M11 10.12 l0 9.88 l-2.06 0 l0 -9.88 l2.06 0 z M11.100000000000001 6.5 c0 0.64 -0.5 1.14 -1.14 1.14 c-0.62 0 -1.12 -0.5 -1.12 -1.14 c0 -0.62 0.5 -1.12 1.12 -1.12 c0.64 0 1.14 0.5 1.14 1.12 z M20.84 16.16 c0.04 0.12 0.38 1.1 -0.04 2.1 c-0.52 1.18 -1.9 1.94 -3.62 1.94 l-0.02 0 c-1.38 0 -2.64 -0.58 -3.58 -1.5 l1.34 -1.34 c0.56 0.72 1.36 1.08 2.24 1.08 c0.98 0 1.8 -0.36 2.02 -0.88 c0.14 -0.36 0.02 -0.74 0.02 -0.78 c-0.24 -0.6 -1.12 -0.72 -2.12 -0.94 c-1.34 -0.3 -2.68 -0.64 -3.2 -2.04 c-0.26 -0.72 -0.18 -1.56 0.18 -2.26 c0.82 -1.54 2.86 -1.6 3.1 -1.6 c1.38 0 2.68 0.52 3.6 1.46 l-1.34 1.34 c-0.56 -0.72 -1.38 -1.04 -2.26 -1.04 c-0.02 0 -1.2 0.02 -1.54 0.68 c-0.12 0.2 -0.18 0.54 -0.08 0.82 c0.2 0.56 1.1 0.74 2.06 0.96 c1.3 0.3 2.72 0.6 3.24 2 z M30.200000000000003 17.42 l1.42 1.28 c-0.94 1.04 -2.28 1.5 -3.78 1.5 c-2.84 0 -5.14 -2.18 -5.14 -5.12 s2.3 -5.14 5.14 -5.14 c1.5 0 2.84 0.46 3.78 1.5 l-1.42 1.28 c-0.58 -0.78 -1.42 -1.08 -2.36 -1.08 c-1.7 0 -3.08 1.42 -3.08 3.44 c0 2 1.38 3.44 3.08 3.44 c0.94 0 1.78 -0.3 2.36 -1.1 z M42.94 15.08 l0 0.74 l-7.78 0 c0 1.82 1.74 2.7 3.02 2.7 c0.94 0 1.98 -0.5 2.54 -1.3 l1.42 1.28 c-0.66 0.9 -1.74 1.7 -3.96 1.7 c-3.2 0 -5.16 -2.18 -5.16 -5.12 s1.9 -5.14 4.96 -5.14 s4.46 1.7 4.88 4.18 c0.06 0.32 0.08 0.64 0.08 0.96 z M35.2 14.120000000000001 l5.58 0 c0 -1.6 -1.28 -2.48 -2.8 -2.48 s-2.78 1.02 -2.78 2.48 z M44.54 15.08 c0 -2.94 2.1 -5.14 4.94 -5.14 c0.98 0 2.18 0.42 2.84 0.96 l0 -5.9 l2.08 0 l0 15 l-2.08 0 l0 -0.74 c-0.78 0.58 -1.86 0.94 -2.84 0.94 c-2.84 0 -4.94 -2.18 -4.94 -5.12 z M46.620000000000005 15.08 c0 2 1.38 3.44 3.06 3.44 c1.12 0 2.12 -0.52 2.64 -1.58 c0.28 -0.54 0.44 -1.18 0.44 -1.86 s-0.16 -1.32 -0.44 -1.88 c-0.52 -1.06 -1.52 -1.56 -2.64 -1.56 c-1.68 0 -3.06 1.42 -3.06 3.44 z M64.5 10.12 l2.06 0 l0 10.04 c0 2.94 -2.3 5.32 -5.14 5.32 c-1.48 0 -2.82 -0.66 -3.76 -1.7 l1.42 -1.28 c0.56 0.8 1.4 1.3 2.34 1.3 c1.7 0 3.08 -1.64 3.08 -3.64 l0 -0.92 c-0.66 0.54 -1.88 0.94 -2.84 0.94 c-2.84 0 -4.94 -2.18 -4.94 -5.12 s2.1 -5.14 4.94 -5.14 c0.96 0 2.06 0.36 2.84 0.96 l0 -0.76 z M61.86 18.5 c1.12 0 2.1 -0.52 2.64 -1.58 c0.28 -0.54 0.44 -1.18 0.44 -1.86 s-0.16 -1.32 -0.44 -1.88 c-0.54 -1.06 -1.52 -1.56 -2.64 -1.56 c-1.7 0 -3.08 1.42 -3.08 3.44 c0 2 1.38 3.44 3.08 3.44 z M78.67999999999999 15.08 l0 0.74 l-7.78 0 c0 1.82 1.74 2.7 3.02 2.7 c0.94 0 1.98 -0.5 2.54 -1.3 l1.42 1.28 c-0.66 0.9 -1.74 1.7 -3.96 1.7 c-3.2 0 -5.16 -2.18 -5.16 -5.12 s1.9 -5.14 4.96 -5.14 s4.46 1.7 4.88 4.18 c0.06 0.32 0.08 0.64 0.08 0.96 z M70.94 14.120000000000001 l5.58 0 c0 -1.6 -1.28 -2.48 -2.8 -2.48 s-2.78 1.02 -2.78 2.48 z"/></g>
			</g>
		</svg>
	